{"title":"The Others 2001 True.1080p.BluRay 5.1.x264 . NVEE","uid":12188521,"size":2511487755,"categoryP":"video","categoryS":"hd___movies","magnet":"?xt=urn:btih:b8292ca1975f03b2fbe5f67a81a0a3f0d58ec6b5&amp;dn=The+Others+2001+True.1080p.BluRay+5.1.x264+.+NVEE&amp;tr=udp%3A%2F%2Ftracker.openbittorrent.com%3A80&amp;tr=udp%3A%2F%2Fopen.demonii.com%3A1337&amp;tr=udp%3A%2F%2Ftracker.coppersurfer.tk%3A6969&amp;tr=udp%3A%2F%2Fexodus.desync.com%3A6969","seeders":6,"leechers":5,"uploader":".NVEE","files":2,"time":1438611989,"description":"Quick note : \n\nTrackers refresh never most current &amp; so if, \nYou require a torrent release I have posted in the past, not seeding,... \nPlease do not hesitate to inform me in any means you find fit to do so. \nTorrent requests also &quot;Always Welcome.&quot; \n\n \nFULL_INFOs \n\n99.99% &gt;&gt;&gt; SYNCED GUARANTEED \n\n&quot;Totally scrutinized / analyzed to be a verified torrent.&quot; \n___________________________________________ \n\nSource : Blu-ray ~ 1080p \n\n \n\nSpoken Language : English \n\nAudio : 6 ~ Channels Only \n\n \nSubs Info : \n\nx1 ~ English .srt \n\nAll .srt UTF-8 .idx &amp; .ass subs can be turned On/Off \n_____________________________________ \n--------------------------------------------------------------------------------- \n \nGeneral Metadata \n\nComplete name : The Others 2001.True.1080p.BluRay.5.1.x264 . NVEE.mp4 \nFormat : MPEG-4 \nFormat profile : Base Media \nCodec ID : isom \nFile size : 2.34 GiB \nDuration : 1h 44mn \nOverall bit rate : 3 212 Kbps \nEncoded date : UTC 2015-07-26 22:29:35 \nTagged date : UTC 2015-07-26 22:29:35 \n\n \nVideo \n\nID : 1 \nFormat : AVC \nFormat/Info : Advanced Video Codec \nFormat profile : High@L5 \nFormat settings, CABAC : Yes \nFormat settings, ReFrames : 6 frames \nCodec ID : avc1 \nCodec ID/Info : Advanced Video Coding \nDuration : 1h 44mn \nBit rate : 2 572 Kbps \nMaximum bit rate : 7 431 Kbps \nWidth : 1 920 pixels \nHeight : 1 080 pixels \nDisplay aspect ratio : 16:9 \nFrame rate mode : Constant \nFrame rate : 23.976 fps \nColor space : YUV \nChroma subsampling : 4:2:0 \nBit depth : 8 bits \nScan type : Progressive \nBits/(Pixel*Frame) : 0.052 \nStream size : 1.87 GiB (80%) \nWriting library : x264 core 146 r2538 121396c \n\nEncoded from Physical Blu-ray / Region B \n\n \nAudio \n\nID : 2 \nFormat : AC-3 \nFormat/Info : Audio Coding 3 \nMode extension : CM (complete main) \nFormat settings, Endianness : Big \nCodec ID : ac-3 \nDuration : 1h 44mn \nBit rate mode : Constant \nBit rate : 640 Kbps \nMaximum bit rate : 676 Kbps \nChannel(s) : 6 channels \nChannel positions : Front: L C R, Side: L R, LFE \nSampling rate : 48.0 KHz \nBit depth : 16 bits \nCompression mode : Lossy \nStream size : 477 MiB (20%) \nLanguage : English \nEncoded date : UTC 2015-07-26 22:40:55 \nTagged date : UTC 2015-07-26 22:41:11 \n\nEncoded from Physical Blu-ray 6 Channel audio &quot;Only&quot;. \n\n \n\n \n\n \n\n\n\n\nEnj0y !","torrent":{"xt":"urn:btih:b8292ca1975f03b2fbe5f67a81a0a3f0d58ec6b5","amp;dn":"The+Others+2001+True.1080p.BluRay+5.1.x264+.+NVEE","amp;tr":["udp%3A%2F%2Ftracker.openbittorrent.com%3A80","udp%3A%2F%2Fopen.demonii.com%3A1337","udp%3A%2F%2Ftracker.coppersurfer.tk%3A6969","udp%3A%2F%2Fexodus.desync.com%3A6969"],"infoHash":"b8292ca1975f03b2fbe5f67a81a0a3f0d58ec6b5","infoHashBuffer":{"type":"Buffer","data":[184,41,44,161,151,95,3,178,251,229,246,122,129,160,163,240,213,142,198,181]},"announce":[],"urlList":[]}}